<?xml version="1.0" encoding="utf-8"?>
<svg id="svg2" viewBox="127.102 216.376 280.598 258.432" xmlns="http://www.w3.org/2000/svg">
  <desc>Source: openclipart.org/detail/209545</desc>
  <g id="svg-1" transform="matrix(1, 0, 0, 1, 90.192299, -125.982887)">
    <desc>Source: openclipart.org/detail/209545</desc>
    <g transform="matrix(0.976563, 0, 0, 0.976563, -62.457333, 173.76059)" stroke-width="0.3" stroke-opacity="0.98" stroke="#000000" fill-opacity="0.0" fill="None"/>
    <g transform="matrix(0.797611, 0, 0, 0.797611, -9.263023, 264.22052)" stroke-width="0.3" stroke-opacity="0.00" stroke="#000000" fill-opacity="0.0" fill="None" style="">
      <path d="M 176.00 100.00 C 168.13 100.86 158.35 108.17 155.19 116.75 C 152.04 125.34 154.36 144.86 154.00 158.00 C 153.64 171.14 153.69 194.91 154.00 208.00 C 154.31 221.09 152.30 242.38 154.81 251.75 C 157.32 261.11 161.05 266.16 170.77 269.79 C 180.49 273.42 199.59 270.16 214.00 271.00 C 228.41 271.84 247.59 270.69 263.00 271.00 C 278.41 271.31 297.34 270.98 313.00 271.00 C 328.66 271.02 347.77 271.26 363.00 271.00 C 378.23 270.74 388.24 272.97 396.25 265.39 C 404.26 257.82 407.37 255.86 407.00 242.00 C 406.63 228.14 407.28 207.09 407.00 192.00 C 406.72 176.91 407.39 158.42 407.00 143.00 C 406.61 127.58 409.45 119.83 401.30 110.70 C 393.16 101.57 386.05 99.85 371.00 101.00 C 355.95 102.15 337.77 100.28 322.00 101.00 C 306.23 101.72 287.98 100.22 272.00 101.00 C 256.02 101.78 237.72 99.64 222.00 101.00 C 206.28 102.36 189.97 98.47 176.00 100.00 M 307.00 159.00 C 326.02 154.32 342.37 169.77 342.00 187.00 C 341.63 204.24 326.20 214.42 307.00 213.00 C 310.02 232.10 298.40 246.00 281.97 246.98 C 265.55 247.95 249.09 231.15 254.00 213.00 C 247.16 214.18 239.95 211.79 235.25 210.41 C 230.55 209.03 227.03 202.89 223.61 199.25 C 220.19 195.60 219.89 190.04 219.67 183.33 C 219.44 176.62 222.33 176.06 224.59 170.25 C 226.84 164.43 233.44 164.25 236.25 160.81 C 239.07 157.37 252.29 162.19 253.92 156.92 C 255.54 151.64 252.96 142.82 256.71 139.70 C 260.46 136.57 260.51 129.82 266.92 127.91 C 273.33 126.01 272.37 124.90 281.68 124.66 C 290.99 124.42 302.11 132.35 305.58 140.77 C 309.04 149.19 307.50 149.50 307.00 159.00 Z" style="fill-rule: nonzero; stroke: rgb(255, 255, 255); stroke-width: 51.2px; fill-opacity: 1; fill: rgb(68, 71, 81);"/>
    </g>
    <g transform="matrix(0.976563, 0, 0, 0.976563, -62.457333, 173.76059)" stroke-width="0.3" stroke-opacity="0.96" stroke="#000000" fill-opacity="0.0" fill="None"/>
    <g transform="matrix(0.797611, 0, 0, 0.797611, -9.263023, 264.22052)" stroke-width="0.3" stroke-opacity="0.02" stroke="#000000" fill-opacity="0.0" fill="None" style="">
      <path d="M 291.00 175.00 C 291.12 161.65 296.82 142.60 281.68 141.34 C 266.54 140.08 269.44 161.27 270.00 175.00 C 256.33 176.66 236.04 169.68 235.98 184.97 C 235.92 200.26 256.46 196.02 270.00 196.00 C 270.55 208.63 263.28 229.29 278.78 230.78 C 294.27 232.28 291.92 209.01 291.00 196.00 C 303.99 195.41 326.65 201.00 325.92 185.08 C 325.19 169.16 303.58 176.92 291.00 175.00 Z" style="fill-rule: nonzero; stroke: rgb(255, 255, 255); stroke-width: 51.2px; stroke-opacity: 0; fill-opacity: 1; fill: rgb(68, 71, 81);"/>
    </g>
    <g transform="matrix(0.976563, 0, 0, 0.976563, -62.457333, 173.76059)" stroke-width="0.3" stroke-opacity="0.02" stroke="#000000" fill-opacity="0.0" fill="None"/>
    <g transform="matrix(0.976563, 0, 0, 0.976563, -62.457333, 173.76059)" stroke-width="0.3" stroke-opacity="0.02" stroke="#000000" fill-opacity="0.0" fill="None">
      <path d="M 193.00 393.00 C 191.32 376.97 214.61 380.02 227.31 379.35 C 240.00 378.69 262.42 381.31 260.99 362.01 C 259.56 342.71 240.50 346.28 221.00 346.00 C 201.50 345.72 174.21 346.21 154.00 346.00 C 155.67 371.72 155.67 399.26 154.00 425.00 C 170.90 427.81 185.09 429.29 200.25 433.41 C 215.40 437.53 231.87 439.17 247.25 434.59 C 262.62 430.01 278.38 429.26 293.77 425.21 C 309.16 421.16 325.67 421.37 341.25 416.39 C 356.83 411.42 373.62 416.70 384.29 402.30 C 394.96 387.90 377.38 369.69 360.25 375.20 C 343.11 380.71 329.09 380.30 312.08 384.93 C 295.07 389.57 281.42 387.63 264.25 392.24 C 247.07 396.86 221.24 397.22 199.00 398.00 C 196.91 396.68 196.16 392.97 193.00 393.00 Z" style="fill-rule: nonzero; stroke: rgb(255, 255, 255); stroke-width: 51.2px; stroke-opacity: 0; fill-opacity: 1; fill: rgb(68, 71, 81);"/>
    </g>
    <g transform="matrix(0.976563, 0, 0, 0.976563, -62.457333, 173.76059)" stroke="None" fill-opacity="0.00" fill="#000000"/>
    <g style="" transform="matrix(0.852515, 0, 0, 0.852515, -9.85052, 217.404617)" stroke="None" fill-opacity="0.98" fill="#000000"/>
    <g transform="matrix(0.976563, 0, 0, 0.976563, -62.457333, 173.76059)" stroke="None" fill-opacity="0.05" fill="#000000"/>
    <g transform="matrix(0.976563, 0, 0, 0.976563, -62.457333, 173.76059)" stroke="None" fill-opacity="0.00" fill="#000000"/>
    <g transform="matrix(0.976563, 0, 0, 0.976563, -62.457333, 173.76059)" stroke="None" fill-opacity="0.97" fill="#000000"/>
    <g transform="matrix(0.976563, 0, 0, 0.976563, -62.457333, 173.76059)" stroke="None" fill-opacity="0.02" fill="#000000"/>
    <g transform="matrix(0.976563, 0, 0, 0.976563, -62.457333, 173.76059)" stroke="None" fill-opacity="0.02" fill="#000000"/>
  </g>
  <rect x="129.796" y="385.325" width="31.978" height="78.445" style="stroke: rgb(0, 0, 0); stroke-opacity: 0; stroke-width: 0px; fill: rgb(68, 71, 81);" rx="4.66" ry="4.66"/>
</svg>